<?xml version="1.0" standalone="no"?>
<!DOCTYPE svg PUBLIC "-//W3C//DTD SVG 20010904//EN"
 "http://www.w3.org/TR/2001/REC-SVG-20010904/DTD/svg10.dtd">
<svg version="1.0" xmlns="http://www.w3.org/2000/svg"
 width="300.000000pt" height="300.000000pt" viewBox="0 0 300.000000 300.000000"
 preserveAspectRatio="xMidYMid meet">
<metadata>
Created by potrace 1.10, written by Peter Selinger 2001-2011
</metadata>
<g transform="translate(0.000000,300.000000) scale(0.050000,-0.050000)"
fill="#000000" stroke="none">
<path d="M2355 5310 c-93 -64 -164 -210 -102 -210 31 0 150 107 177 160 58
112 37 125 -75 50z"/>
<path d="M2887 5250 c-23 -16 -48 -50 -54 -77 -12 -45 -23 -48 -229 -60 -444
-27 -774 -187 -974 -475 -33 -47 -96 -117 -140 -157 -276 -245 -449 -481 -553
-756 -26 -68 -58 -125 -72 -125 -17 0 -22 -16 -14 -47 6 -25 -4 -126 -22 -225
-26 -134 -31 -229 -20 -387 l13 -210 -47 45 c-71 66 -82 55 -67 -67 19 -169
59 -247 130 -262 51 -10 70 -33 121 -142 69 -147 73 -169 31 -152 -48 18 -36
-18 49 -149 52 -80 97 -127 130 -135 28 -8 96 -70 159 -148 l109 -135 -99 10
c-55 5 -98 1 -98 -10 0 -33 178 -109 240 -103 47 5 78 -12 155 -86 229 -222
476 -343 915 -447 77 -19 180 -47 230 -63 208 -69 618 -26 978 102 169 60 175
0 7 -75 -340 -151 -802 -182 -1114 -74 -135 46 -210 23 -89 -28 222 -93 652
-117 908 -52 181 46 177 47 146 -36 -14 -34 -18 -69 -10 -77 20 -20 153 113
167 167 6 25 27 50 47 56 157 50 458 301 610 509 100 136 122 156 130 121 28
-118 168 85 171 248 1 69 20 137 58 210 l55 109 43 -108 c46 -116 113 -161
113 -75 0 84 -41 194 -82 223 -41 29 -41 29 18 206 63 186 124 500 124 633 l0
78 74 -65 c120 -105 119 28 -2 145 -62 61 -68 78 -82 236 -8 94 -31 233 -50
310 -42 165 -45 158 46 120 102 -42 103 -41 44 67 -67 123 -138 199 -199 215
-26 6 -72 48 -102 93 -30 45 -77 103 -106 129 l-52 49 107 -15 c87 -11 106 -9
99 14 -15 47 -180 121 -244 109 -38 -7 -75 2 -110 27 -73 51 -285 158 -583
293 -137 63 -253 116 -256 119 -3 3 35 29 85 58 120 71 115 92 -24 94 -171 4
-211 -3 -250 -37 -33 -29 -50 -27 -200 20 -91 28 -192 58 -225 66 l-60 14 70
33 c107 49 220 123 220 144 0 31 -326 22 -373 -12z m-249 -201 c-239 -33 -323
-54 -333 -85 -11 -32 29 -30 168 6 264 69 927 -3 927 -101 0 -17 19 -29 45
-29 46 -1 111 -32 94 -46 -5 -4 -94 0 -199 10 -104 9 -235 12 -291 5 -91 -10
-109 -5 -178 50 -116 93 -200 86 -181 -14 l14 -75 -47 43 c-131 119 -312 110
-294 -14 9 -58 -181 -132 -246 -97 -66 35 -148 15 -143 -35 4 -38 -8 -45 -100
-58 -57 -7 -120 -22 -140 -33 -93 -48 -71 9 48 126 261 257 551 372 938 373
91 0 77 -4 -82 -26z m1062 -249 c65 -36 67 -38 20 -39 -27 0 -72 17 -100 39
-66 51 -14 51 80 0z m-520 -82 c0 -22 29 -70 65 -105 l65 -63 6 64 c4 35 -4
84 -17 107 -25 47 254 43 351 -6 124 -61 286 -258 276 -334 -8 -56 -2 -82 24
-103 19 -15 60 -53 91 -84 50 -49 58 -52 75 -22 54 97 476 -791 454 -955 -14
-96 -12 -100 27 -88 35 11 44 1 63 -73 13 -47 31 -113 41 -146 118 -395 100
-610 -53 -610 -87 0 -91 -3 -127 -88 -21 -48 -47 -94 -59 -101 -70 -43 25 -70
102 -29 56 30 42 -5 -54 -140 -59 -82 -85 -102 -131 -102 -68 0 -218 -200
-165 -220 74 -29 -180 -220 -293 -220 -80 0 -85 -3 -73 -47 24 -98 -422 -225
-616 -176 -110 28 -118 28 -102 3 11 -18 -22 -24 -174 -29 -31 -1 -47 15 -58
53 -13 51 -11 54 42 43 140 -28 187 94 60 158 -89 45 -274 42 -262 -5 4 -16
14 -61 23 -100 9 -38 22 -89 29 -113 13 -42 10 -43 -113 -33 -275 22 -326 55
-344 226 -7 61 -12 112 -13 114 -1 14 -91 86 -106 86 -10 0 -15 -40 -11 -90 4
-49 1 -90 -7 -90 -28 0 -43 50 -39 126 4 69 -5 88 -79 156 -96 89 -98 90 -98
46 0 -58 -51 4 -155 188 -218 385 -329 669 -312 794 11 80 9 87 -27 77 -39
-10 -99 116 -73 157 6 10 1 29 -9 42 -124 150 -109 614 21 614 84 1 107 16
145 101 17 38 41 84 55 103 34 49 6 65 -65 36 -88 -36 -88 -22 -3 101 61 88
87 110 139 115 69 7 237 223 186 240 -80 27 183 224 299 224 71 0 80 4 60 29
-84 101 475 237 674 165 34 -13 45 -9 45 15 0 24 23 31 110 31 98 0 110 -5
110 -42z m792 -77 c230 -116 524 -406 693 -685 87 -144 90 -157 31 -151 -72 8
-104 -81 -76 -215 35 -170 96 -167 148 8 16 54 32 80 38 62 93 -267 123 -515
94 -787 -33 -319 -58 -341 -100 -89 -24 146 -23 156 17 207 65 83 57 116 -25
103 -80 -13 -92 5 -92 138 0 61 -8 88 -27 88 -16 0 -60 79 -103 185 -170 420
-378 755 -637 1029 -175 185 -167 210 39 107z m-1932 -81 c0 -11 -9 -20 -20
-20 -12 0 -95 -71 -185 -158 -124 -119 -187 -164 -252 -181 -155 -42 -274
-261 -142 -261 l42 0 -40 -56 c-22 -31 -104 -204 -181 -385 -158 -368 -168
-372 -81 -33 112 442 324 936 431 1007 90 59 428 128 428 87z m2440 -169 c156
-118 303 -304 287 -366 -9 -36 3 -64 48 -111 116 -123 164 -333 175 -764 l7
-280 -16 220 c-38 540 -208 912 -593 1298 -189 188 -157 189 92 3z m-3117
-186 c-312 -624 -429 -1461 -274 -1975 45 -151 24 -129 -56 57 -130 303 -179
630 -144 960 14 131 16 135 51 103 77 -69 89 21 21 148 -42 78 209 580 375
751 92 95 94 91 27 -44z m-79 -1070 c31 -158 31 -167 -6 -206 -50 -54 -52
-138 -3 -124 19 6 47 13 63 18 34 9 65 -93 48 -160 -8 -35 0 -58 29 -81 22
-17 78 -122 124 -232 104 -249 250 -511 400 -720 108 -150 115 -165 103 -245
l-12 -85 -160 137 c-234 200 -412 415 -482 580 -35 85 -36 83 11 83 81 0 103
155 43 308 -31 77 -86 31 -124 -104 l-26 -94 -48 150 c-59 188 -81 579 -45
796 32 185 46 181 85 -21z m3638 -630 c-22 -86 -49 -178 -60 -205 l-19 -50 -2
50 c-1 64 107 431 115 391 4 -17 -11 -100 -34 -186z m-3793 70 c7 -58 34 -167
59 -243 45 -132 48 -212 9 -212 -25 0 -117 424 -117 538 0 69 38 5 49 -83z
m3620 -440 c-43 -140 -95 -257 -121 -271 -15 -9 -46 -63 -67 -122 -79 -216
-541 -689 -541 -554 0 61 -41 52 -82 -18 -39 -64 -142 -130 -205 -130 -46 0
-26 117 21 129 24 6 68 34 98 61 35 33 77 50 122 50 46 0 71 11 81 35 7 19 83
101 168 182 177 166 305 328 424 538 81 142 129 189 102 100z m-3301 -328 c33
-51 141 -174 240 -273 180 -179 165 -186 -49 -23 -174 134 -336 325 -310 368
26 41 62 19 119 -72z m864 -602 c-29 -29 -172 41 -172 84 0 26 -6 64 -13 84
-7 21 33 -7 90 -62 56 -54 99 -102 95 -106z m-220 5 c98 -39 196 -80 218 -90
22 -10 106 -29 186 -42 133 -23 215 -73 179 -110 -44 -44 -799 257 -885 353
l-40 44 82 -41 c45 -23 162 -74 260 -114z m1978 -121 c-78 -64 -117 -63 -44 2
31 27 67 49 80 48 13 0 -3 -23 -36 -50z m-1032 -2 c5 -4 -69 -7 -163 -7 -95 0
-178 9 -185 20 -12 19 326 6 348 -13z m461 -56 l45 -48 -79 -22 c-214 -57
-485 -81 -537 -46 -22 15 -68 92 -68 114 0 18 199 13 236 -6 92 -48 304 -41
304 9 0 62 41 61 99 -1z"/>
<path d="M3760 4479 c0 -61 75 -159 121 -159 38 0 3 145 -44 185 -59 50 -77
44 -77 -26z"/>
<path d="M3644 4336 c-43 -43 -22 -216 26 -216 41 0 79 116 58 175 -21 61 -50
75 -84 41z"/>
<path d="M1930 4233 c-35 -26 -35 -29 13 -60 52 -34 166 -28 189 10 39 63
-127 104 -202 50z"/>
<path d="M4163 3714 c-44 -48 -57 -132 -25 -165 11 -10 26 -48 35 -84 33 -129
106 -46 107 121 0 162 -42 208 -117 128z"/>
<path d="M1503 3454 c-45 -48 -59 -134 -22 -134 58 0 159 108 159 169 0 31
-99 5 -137 -35z"/>
<path d="M3078 3441 c-527 -286 -262 -1178 303 -1021 147 41 353 400 229 400
-19 0 -30 -20 -30 -56 0 -318 -436 -432 -566 -147 -63 137 -63 530 1 669 123
270 480 140 554 -201 29 -132 51 -59 51 165 0 221 -22 296 -50 170 -19 -87
-40 -90 -139 -18 -114 82 -248 97 -353 39z"/>
<path d="M2140 3420 c0 -11 30 -20 66 -20 136 0 138 -6 138 -460 0 -454 -2
-460 -138 -460 -36 0 -66 -9 -66 -20 0 -12 107 -20 280 -20 270 0 368 23 197
46 -116 15 -116 19 -116 454 0 435 0 439 116 454 171 23 73 46 -197 46 -173 0
-280 -8 -280 -20z"/>
<path d="M4351 3396 c-40 -57 -39 -144 1 -262 39 -116 59 -118 109 -9 83 183
-10 413 -110 271z"/>
<path d="M1619 2775 c-54 -120 -50 -206 12 -268 106 -106 177 94 99 281 -40
94 -63 91 -111 -13z"/>
<path d="M4567 2579 c-84 -32 -146 -179 -75 -179 17 0 57 26 90 58 85 85 76
156 -15 121z"/>
<path d="M1828 2457 c-72 -140 -3 -357 87 -273 53 50 54 117 2 261 -33 91 -47
93 -89 12z"/>
<path d="M2369 1731 c-35 -84 -9 -178 46 -167 38 7 57 106 36 189 -17 67 -48
58 -82 -22z"/>
<path d="M3975 1738 c-48 -28 -44 -48 16 -75 67 -30 113 -29 159 5 85 61 -78
127 -175 70z"/>
<path d="M3337 1391 c-5 -5 -45 -12 -88 -16 -97 -7 -100 -30 -10 -90 76 -51
260 -58 276 -11 18 55 -137 157 -178 117z"/>
<path d="M4449 4139 c-48 -79 25 -270 89 -230 28 17 29 161 1 212 -22 43 -69
51 -90 18z"/>
<path d="M1541 1983 c-39 -74 -9 -208 51 -231 74 -28 89 143 19 218 -47 51
-49 52 -70 13z"/>
<path d="M1566 4995 c-161 -177 -206 -313 -127 -384 85 -77 153 32 174 279 14
165 12 170 -47 105z"/>
<path d="M1002 4621 c-46 -213 -19 -344 78 -378 119 -41 129 66 31 316 -69
175 -83 183 -109 62z"/>
<path d="M4342 4675 c-126 -65 -22 -117 143 -73 56 16 105 38 109 50 16 48
-171 64 -252 23z"/>
<path d="M5080 3499 c0 -97 171 -339 240 -339 51 0 -15 275 -81 341 -54 54
-159 53 -159 -2z"/>
<path d="M541 2495 c0 -14 34 -88 75 -165 l74 -140 95 -6 c172 -11 113 120
-124 277 -98 65 -121 72 -120 34z"/>
<path d="M4475 1355 c-59 -92 -120 -395 -79 -395 27 0 155 145 193 218 72 138
-33 301 -114 177z"/>
<path d="M1344 1327 c-66 -14 -45 -49 47 -81 122 -43 286 2 192 52 -48 26
-178 41 -239 29z"/>
<path d="M1555 1217 c-102 -37 -54 -77 93 -77 92 0 167 40 144 77 -17 28 -161
28 -237 0z"/>
<path d="M4073 915 c-65 -70 -164 -291 -150 -335 9 -27 266 163 284 210 54
140 -38 226 -134 125z"/>
</g>
</svg>
